# xmcd
#
# Track frame offsets:
#	150
#	20805
#	39680
#	55622
#	77560
#	101025
#	123535
#	143912
#	161862
#	178797
#	196962
#	212782
#	234917
#	251952
#	266457
#	287955
#
# Disc length: 4046 seconds
#
# Revision: 3
# Processed by: cddbd v1.5.2PL0 Copyright (c) Steve Scherf et al.
# Submitted via: audiograbber 1.83.01
#
DISCID=f10fcc10
DTITLE=Various Artist - Ohne Filter - Vol.3
DYEAR=1993
DGENRE=Blues
TTITLE0=James Taylor - One More Go Round (1991)
TTITLE1=Kal David - Let's Make A Million Dollars (1992)
TTITLE2=Mary-Chapin Carpenter - I Feel Lucky (1992)
TTITLE3=Walter Trout Band - Frederica (I Don't Need You) (1990)
TTITLE4=Norman Brown - Too High (1992)
TTITLE5=Lucky Peterson - Who's Been Talkin' ? (1992)
TTITLE6=Bill Champlin - Headed For The Top (1992)
TTITLE7=Albert King - Bluesman (1991)
TTITLE8=Tom Principato - I'd Rather Be Blind (1992)
TTITLE9=Long John Baldry - You Wanna Dance (1992)
TTITLE10=Joe McBride - Get On The Right Track (1993)
TTITLE11=The Boomers - You've Got To Know (1993)
TTITLE12=Robben Ford and The Blue Line - Start It Up (1992)
TTITLE13=Kenny Neal - Howling At The Moon (1992)
TTITLE14=Phil Upchurch - Whatever Happened To The Blues (1992)
TTITLE15=Kim Wilson - She Moves Me (1993)
EXTD=
EXTT0=
EXTT1=
EXTT2=
EXTT3=
EXTT4=
EXTT5=
EXTT6=
EXTT7=
EXTT8=
EXTT9=
EXTT10=
EXTT11=
EXTT12=
EXTT13=
EXTT14=
EXTT15=
PLAYORDER=
